<?xml version="1.0" encoding="UTF-8" standalone="no"?>
<!-- Generator: Adobe Illustrator 19.0.0, SVG Export Plug-In . SVG Version: 6.00 Build 0)  -->

<svg
   xmlns:dc="http://purl.org/dc/elements/1.1/"
   xmlns:cc="http://creativecommons.org/ns#"
   xmlns:rdf="http://www.w3.org/1999/02/22-rdf-syntax-ns#"
   xmlns:svg="http://www.w3.org/2000/svg"
   xmlns="http://www.w3.org/2000/svg"
   xmlns:sodipodi="http://sodipodi.sourceforge.net/DTD/sodipodi-0.dtd"
   xmlns:inkscape="http://www.inkscape.org/namespaces/inkscape"
   version="1.1"
   id="Layer_1"
   x="0px"
   y="0px"
   viewBox="0 0 89.758 89.758"
   style="enable-background:new 0 0 89.758 89.758;"
   xml:space="preserve"
   inkscape:version="0.91 r13725"
   sodipodi:docname="instagram.svg"><metadata
     id="metadata45"><rdf:RDF><cc:Work
         rdf:about=""><dc:format>image/svg+xml</dc:format><dc:type
           rdf:resource="http://purl.org/dc/dcmitype/StillImage" /></cc:Work></rdf:RDF></metadata><defs
     id="defs43" /><sodipodi:namedview
     pagecolor="#ffffff"
     bordercolor="#666666"
     borderopacity="1"
     objecttolerance="10"
     gridtolerance="10"
     guidetolerance="10"
     inkscape:pageopacity="0"
     inkscape:pageshadow="2"
     inkscape:window-width="1920"
     inkscape:window-height="949"
     id="namedview41"
     showgrid="false"
     inkscape:zoom="2.629292"
     inkscape:cx="46.400324"
     inkscape:cy="44.879002"
     inkscape:window-x="0"
     inkscape:window-y="25"
     inkscape:window-maximized="1"
     inkscape:current-layer="g3" /><g
     id="g11" /><g
     id="g13" /><g
     id="g15" /><g
     id="g17" /><g
     id="g19" /><g
     id="g21" /><g
     id="g23" /><g
     id="g25" /><g
     id="g27" /><g
     id="g29" /><g
     id="g31" /><g
     id="g33" /><g
     id="g35" /><g
     id="g37" /><g
     id="g39" /><g
     id="g3"><ellipse
       style="fill:#ffffff;fill-opacity:1"
       id="path3351"
       cx="44.879002"
       cy="44.688835"
       rx="38.413383"
       ry="37.842888" /><path
       style="fill:#cccccc"
       d="M58.255,23.88H31.503c-4.27,0-7.744,3.474-7.744,7.744v26.752c0,4.27,3.474,7.745,7.744,7.745   h26.752c4.27,0,7.745-3.474,7.745-7.745V31.624C66,27.354,62.526,23.88,58.255,23.88z M44.879,58.906   c-7.667,0-13.905-6.238-13.905-13.906c0-7.667,6.238-13.905,13.905-13.905c7.668,0,13.906,6.238,13.906,13.905   C58.785,52.667,52.546,58.906,44.879,58.906z M59.232,33.97c-1.815,0-3.291-1.476-3.291-3.29c0-1.814,1.476-3.29,3.291-3.29   c1.814,0,3.29,1.476,3.29,3.29C62.522,32.494,61.046,33.97,59.232,33.97z"
       id="path5" /><path
       style="fill:#cccccc"
       d="M44.879,36.971c-4.426,0-8.03,3.602-8.03,8.028c0,4.428,3.604,8.031,8.03,8.031   c4.428,0,8.029-3.603,8.029-8.031C52.908,40.574,49.306,36.971,44.879,36.971z"
       id="path7" /><path
       style="fill:#cccccc"
       d="M44.879,0C20.094,0,0,20.094,0,44.879c0,24.785,20.094,44.879,44.879,44.879   c24.785,0,44.879-20.094,44.879-44.879C89.758,20.094,69.664,0,44.879,0z M71.875,58.376c0,7.511-6.109,13.62-13.62,13.62H31.503   c-7.51,0-13.62-6.109-13.62-13.62V31.624c0-7.51,6.11-13.62,13.62-13.62h26.752c7.511,0,13.62,6.11,13.62,13.62V58.376z"
       id="path9" /></g></svg>